<svg width="900" height="640" viewBox="0 0 900 640" fill="none" xmlns="http://www.w3.org/2000/svg">
  <rect width="900" height="640" fill="#E8E5D9"/>
  <path d="M0 0H182C155 35 177 67 146 95C119 120 151 154 126 181C99 212 135 244 107 273C78 304 113 341 83 373C54 406 96 443 69 474C44 504 69 548 45 640H0V0Z" fill="#F6F4EB"/>
  <g stroke="#C0BFB6" stroke-width="1.5" opacity=".95"><path d="M0 20C65 35 73 56 145 72"/><path d="M0 32C55 49 81 72 145 88"/><path d="M0 45C61 64 82 87 143 105"/><path d="M0 61C57 78 82 104 139 121"/><path d="M0 78C57 94 82 120 134 139"/><path d="M0 97C55 111 78 141 129 159"/><path d="M0 118C53 132 76 161 126 181"/><path d="M0 141C50 154 73 184 122 204"/><path d="M0 165C47 177 70 206 118 228"/><path d="M0 191C45 203 68 232 113 255"/><path d="M0 220C42 232 63 260 108 282"/><path d="M0 250C40 262 61 291 105 313"/><path d="M0 282C38 294 58 321 102 344"/><path d="M0 316C36 328 56 355 98 377"/><path d="M0 351C35 362 54 389 94 411"/><path d="M0 387C33 397 51 422 91 445"/><path d="M0 423C32 432 50 456 87 478"/></g>
  <g stroke="#55585B" stroke-linecap="round"><path d="M159 89C280 73 378 83 483 111C615 146 714 132 900 48" stroke-width="9"/><path d="M150 290C274 302 322 327 376 391C430 456 544 503 900 517" stroke-width="10"/><path d="M379 0C375 95 382 164 412 229C441 291 474 342 486 442C495 508 485 568 478 640" stroke-width="8"/><path d="M607 81C591 162 562 238 552 320C542 399 551 506 570 640" stroke-width="6"/><path d="M198 472C312 430 401 412 510 395C642 374 732 326 900 236" stroke-width="6"/></g>
  <g stroke="#33383B" stroke-width="3" stroke-dasharray="8 8"><path d="M476 0L481 640"/><path d="M182 123C263 177 326 208 414 237"/></g>
  <g fill="#55585B" font-family="Arial, sans-serif" font-size="11" letter-spacing=".4"><text x="35" y="23">TOWARDS BANDRA WORLI SEA LINK</text><text x="225" y="56">WESTERN EXPRESS HIGHWAY</text><text x="459" y="37">BANDRA ST.</text><text x="675" y="36">BANDRA EAST</text><text x="610" y="116">BKC</text><text x="742" y="87">VILE PARLE</text><text x="433" y="217">MAHIM ST.</text><text x="290" y="252">MOGUL LANE</text><text x="516" y="535">MATUNGA RD ST.</text><text x="322" y="393">T.H. KATARIA MARG</text><text x="642" y="430">KING'S CIRCLE</text><text x="255" y="505">DADAR</text><text x="77" y="338">MAHIM BEACH</text><text x="670" y="603">T.T. CIRCLE</text></g>
  <g fill="#262B2E"><circle cx="279" cy="233" r="4"/><circle cx="243" cy="272" r="4"/><circle cx="354" cy="176" r="4"/><circle cx="457" cy="177" r="4"/><circle cx="552" cy="346" r="4"/><circle cx="587" cy="472" r="4"/><circle cx="687" cy="410" r="4"/><circle cx="314" cy="527" r="4"/></g>
  <g fill="#55585B" font-family="Arial, sans-serif" font-size="10"><text x="208" y="216">BOMBAY SCOTTISH SCHOOL</text><text x="166" y="281">HINDUJA HOSPITAL</text><text x="307" y="158">CANOSSA PRIMARY SCHOOL</text><text x="410" y="159">SHITALA DEVI TEMPLE</text><text x="512" y="330">DAVID SASSON CHILDREN'S HOME</text><text x="560" y="490">RAMA ASHRAM</text><text x="647" y="395">CAFE MADRAS</text><text x="276" y="547">SIDDHIVINAYAK TEMPLE</text></g>
  <g transform="translate(299 279)"><path d="M0 0C0-15 12-27 27-27C42-27 54-15 54 0C54 22 27 48 27 48C27 48 0 22 0 0Z" fill="#1D2225"/><circle cx="27" cy="0" r="9" fill="#F7F4EC"/><circle cx="27" cy="0" r="4" fill="#1D2225"/></g><text x="365" y="286" fill="#1D2225" font-family="Georgia, serif" font-size="16">Rustomjee</text><text x="365" y="306" fill="#1D2225" font-family="Georgia, serif" font-size="16">180 BAYVIEW</text>
  <g transform="translate(740 568)" stroke="#54585A" stroke-width="1"><rect width="128" height="46" fill="#F5F3EB"/><path d="M9 11H119M9 19H119M9 27H119M9 35H119"/><text x="15" y="16" fill="#55585B" font-family="Arial" font-size="7">SAME ROAD</text><text x="15" y="24" fill="#55585B" font-family="Arial" font-size="7">EXPRESS HIGHWAY</text><text x="15" y="32" fill="#55585B" font-family="Arial" font-size="7">RAILWAY LINE</text></g>
</svg>
